# xmcd
#
# Track frame offsets: 
#        150
#        15968
#        33595
#        50397
#        67599
#        85945
#        102879
#        122939
#        142175
#        154553
#
# Disc length: 2322 seconds
#
# Revision: 0
# Processed by: cddbd v1.5.2PL0 Copyright (c) Steve Scherf et al.
# Submitted via: ExactAudioCopy v1.0b1
#
DISCID=7709100a
DTITLE=Terri Clark - Roots And Wings
DYEAR=2011
DGENRE=Country
TTITLE0=Wrecking Ball
TTITLE1=Breakin' Up Thing
TTITLE2=The One
TTITLE3=Northern Girl
TTITLE4=Beautiful And Broken
TTITLE5=Lonesome's Last Call
TTITLE6=The Good Was Great
TTITLE7=Smile
TTITLE8=We're Here For A Good Time
TTITLE9=Flowers In Snow
EXTD=
EXTT0=Title - Wrecking Ball
EXTT1=
EXTT2=
EXTT3=
EXTT4=
EXTT5=
EXTT6=
EXTT7=
EXTT8=
EXTT9=
PLAYORDER=
